<svg width="285" height="321" viewBox="0 0 285 321" fill="none" xmlns="http://www.w3.org/2000/svg">
<g opacity="0.2">
<rect x="286" y="110.853" width="95.3333" height="6.65116" transform="rotate(-180 286 110.853)" fill="#F8FBFF"/>
<rect x="286" y="97.5505" width="95.3333" height="6.65116" transform="rotate(-180 286 97.5505)" fill="#F8FBFF"/>
<rect x="286" y="33.2561" width="95.3333" height="6.65116" transform="rotate(-180 286 33.2561)" fill="#F8FBFF"/>
<rect x="286" y="19.9536" width="95.3333" height="6.65116" transform="rotate(-180 286 19.9536)" fill="#F8FBFF"/>
<rect x="286" y="6.65112" width="95.3333" height="6.65116" transform="rotate(-180 286 6.65112)" fill="#F8FBFF"/>
<rect x="286" y="84.248" width="95.3333" height="6.65116" transform="rotate(-180 286 84.248)" fill="#F8FBFF"/>
<rect x="248.3" y="31.8931" width="73.1894" height="6.8206" transform="rotate(136.233 248.3 31.8931)" fill="#F8FBFF"/>
<rect x="267.046" y="32.5891" width="74.682" height="6.65116" transform="rotate(136.233 267.046 32.5891)" fill="#F8FBFF"/>
<rect x="285.828" y="33.2429" width="74.9071" height="7.1814" transform="rotate(137.162 285.828 33.2429)" fill="#F8FBFF"/>
<rect x="190.667" y="110.853" width="95.3333" height="6.65116" transform="rotate(-180 190.667 110.853)" fill="#F8FBFF"/>
<rect x="190.667" y="97.5505" width="95.3333" height="6.65116" transform="rotate(-180 190.667 97.5505)" fill="#F8FBFF"/>
<rect x="190.667" y="33.2561" width="95.3333" height="6.65116" transform="rotate(-180 190.667 33.2561)" fill="#F8FBFF"/>
<rect x="190.667" y="19.9536" width="95.3333" height="6.65116" transform="rotate(-180 190.667 19.9536)" fill="#F8FBFF"/>
<rect x="190.667" y="6.65112" width="95.3333" height="6.65116" transform="rotate(-180 190.667 6.65112)" fill="#F8FBFF"/>
<rect x="190.667" y="84.248" width="95.3333" height="6.65116" transform="rotate(-180 190.667 84.248)" fill="#F8FBFF"/>
<rect x="152.967" y="31.8931" width="73.1894" height="6.8206" transform="rotate(136.233 152.967 31.8931)" fill="#F8FBFF"/>
<rect x="171.712" y="32.5891" width="74.682" height="6.65116" transform="rotate(136.233 171.712 32.5891)" fill="#F8FBFF"/>
<rect x="190.495" y="33.2429" width="74.9071" height="7.1814" transform="rotate(137.162 190.495 33.2429)" fill="#F8FBFF"/>
<rect x="95.3333" y="110.853" width="95.3333" height="6.65116" transform="rotate(-180 95.3333 110.853)" fill="#F8FBFF"/>
<rect x="95.3333" y="97.5505" width="95.3333" height="6.65116" transform="rotate(-180 95.3333 97.5505)" fill="#F8FBFF"/>
<rect x="95.3333" y="33.2561" width="95.3333" height="6.65116" transform="rotate(-180 95.3333 33.2561)" fill="#F8FBFF"/>
<rect x="95.3333" y="19.9536" width="95.3333" height="6.65116" transform="rotate(-180 95.3333 19.9536)" fill="#F8FBFF"/>
<rect x="95.3333" y="6.65112" width="95.3333" height="6.65116" transform="rotate(-180 95.3333 6.65112)" fill="#F8FBFF"/>
<rect x="95.3333" y="84.248" width="95.3333" height="6.65116" transform="rotate(-180 95.3333 84.248)" fill="#F8FBFF"/>
<rect x="57.6333" y="31.8931" width="73.1894" height="6.8206" transform="rotate(136.233 57.6333 31.8931)" fill="#F8FBFF"/>
<rect x="76.3789" y="32.5891" width="74.682" height="6.65116" transform="rotate(136.233 76.3789 32.5891)" fill="#F8FBFF"/>
<rect x="95.1614" y="33.2429" width="74.9071" height="7.1814" transform="rotate(137.162 95.1614 33.2429)" fill="#F8FBFF"/>
<rect x="286" y="215.381" width="95.3333" height="6.65116" transform="rotate(-180 286 215.381)" fill="#F8FBFF"/>
<rect x="286" y="202.078" width="95.3333" height="6.65116" transform="rotate(-180 286 202.078)" fill="#F8FBFF"/>
<rect x="286" y="137.784" width="95.3333" height="6.65116" transform="rotate(-180 286 137.784)" fill="#F8FBFF"/>
<rect x="286" y="124.481" width="95.3333" height="6.65116" transform="rotate(-180 286 124.481)" fill="#F8FBFF"/>
<rect x="286" y="111.179" width="95.3333" height="6.65116" transform="rotate(-180 286 111.179)" fill="#F8FBFF"/>
<rect x="286" y="188.776" width="95.3333" height="6.65116" transform="rotate(-180 286 188.776)" fill="#F8FBFF"/>
<rect x="248.3" y="136.42" width="73.1894" height="6.8206" transform="rotate(136.233 248.3 136.42)" fill="#F8FBFF"/>
<rect x="267.046" y="137.117" width="74.682" height="6.65116" transform="rotate(136.233 267.046 137.117)" fill="#F8FBFF"/>
<rect x="285.828" y="137.771" width="74.9071" height="7.1814" transform="rotate(137.162 285.828 137.771)" fill="#F8FBFF"/>
<rect x="198.144" y="215.381" width="95.3333" height="6.65116" transform="rotate(-180 198.144 215.381)" fill="#F8FBFF"/>
<rect x="198.144" y="202.078" width="95.3333" height="6.65116" transform="rotate(-180 198.144 202.078)" fill="#F8FBFF"/>
<rect x="198.144" y="137.784" width="95.3333" height="6.65116" transform="rotate(-180 198.144 137.784)" fill="#F8FBFF"/>
<rect x="198.144" y="124.481" width="95.3333" height="6.65116" transform="rotate(-180 198.144 124.481)" fill="#F8FBFF"/>
<rect x="198.144" y="111.179" width="95.3333" height="6.65116" transform="rotate(-180 198.144 111.179)" fill="#F8FBFF"/>
<rect x="198.144" y="188.776" width="95.3333" height="6.65116" transform="rotate(-180 198.144 188.776)" fill="#F8FBFF"/>
<rect x="160.444" y="136.42" width="73.1894" height="6.8206" transform="rotate(136.233 160.444 136.42)" fill="#F8FBFF"/>
<rect x="179.189" y="137.117" width="74.682" height="6.65116" transform="rotate(136.233 179.189 137.117)" fill="#F8FBFF"/>
<rect x="197.972" y="137.771" width="74.9071" height="7.1814" transform="rotate(137.162 197.972 137.771)" fill="#F8FBFF"/>
<rect x="286" y="320.06" width="95.3333" height="6.65116" transform="rotate(-180 286 320.06)" fill="#F8FBFF"/>
<rect x="286" y="306.758" width="95.3333" height="6.65116" transform="rotate(-180 286 306.758)" fill="#F8FBFF"/>
<rect x="286" y="242.463" width="95.3333" height="6.65116" transform="rotate(-180 286 242.463)" fill="#F8FBFF"/>
<rect x="286" y="229.161" width="95.3333" height="6.65116" transform="rotate(-180 286 229.161)" fill="#F8FBFF"/>
<rect x="286" y="215.858" width="95.3333" height="6.65116" transform="rotate(-180 286 215.858)" fill="#F8FBFF"/>
<rect x="286" y="293.455" width="95.3333" height="6.65116" transform="rotate(-180 286 293.455)" fill="#F8FBFF"/>
<rect x="248.3" y="241.1" width="73.1894" height="6.8206" transform="rotate(136.233 248.3 241.1)" fill="#F8FBFF"/>
<rect x="267.046" y="241.796" width="74.682" height="6.65116" transform="rotate(136.233 267.046 241.796)" fill="#F8FBFF"/>
<rect x="285.828" y="242.45" width="74.9071" height="7.1814" transform="rotate(137.162 285.828 242.45)" fill="#F8FBFF"/>
</g>
</svg>
