<svg width="286" height="321" viewBox="0 0 286 321" fill="none" xmlns="http://www.w3.org/2000/svg">
<rect y="209.589" width="95.3333" height="6.65116" fill="#014751"/>
<rect y="222.892" width="95.3333" height="6.65116" fill="#014751"/>
<rect y="287.186" width="95.3333" height="6.65116" fill="#014751"/>
<rect y="300.488" width="95.3333" height="6.65116" fill="#014751"/>
<rect y="313.791" width="95.3333" height="6.65116" fill="#014751"/>
<rect y="236.194" width="95.3333" height="6.65116" fill="#014751"/>
<rect x="37.7" y="288.549" width="73.1894" height="6.8206" transform="rotate(-43.767 37.7 288.549)" fill="#014751"/>
<rect x="18.9544" y="287.853" width="74.682" height="6.65116" transform="rotate(-43.767 18.9544 287.853)" fill="#014751"/>
<rect x="0.171936" y="287.199" width="74.9071" height="7.1814" transform="rotate(-42.838 0.171936 287.199)" fill="#014751"/>
<rect x="95.3333" y="209.589" width="95.3333" height="6.65116" fill="#014751"/>
<rect x="95.3333" y="222.892" width="95.3333" height="6.65116" fill="#014751"/>
<rect x="95.3333" y="287.186" width="95.3333" height="6.65116" fill="#014751"/>
<rect x="95.3333" y="300.488" width="95.3333" height="6.65116" fill="#014751"/>
<rect x="95.3333" y="313.791" width="95.3333" height="6.65116" fill="#014751"/>
<rect x="95.3333" y="236.194" width="95.3333" height="6.65116" fill="#014751"/>
<rect x="133.033" y="288.549" width="73.1894" height="6.8206" transform="rotate(-43.767 133.033 288.549)" fill="#014751"/>
<rect x="114.288" y="287.853" width="74.682" height="6.65116" transform="rotate(-43.767 114.288 287.853)" fill="#014751"/>
<rect x="95.5053" y="287.199" width="74.9071" height="7.1814" transform="rotate(-42.838 95.5053 287.199)" fill="#014751"/>
<rect x="190.667" y="209.589" width="95.3333" height="6.65116" fill="#014751"/>
<rect x="190.667" y="222.892" width="95.3333" height="6.65116" fill="#014751"/>
<rect x="190.667" y="287.186" width="95.3333" height="6.65116" fill="#014751"/>
<rect x="190.667" y="300.488" width="95.3333" height="6.65116" fill="#014751"/>
<rect x="190.667" y="313.791" width="95.3333" height="6.65116" fill="#014751"/>
<rect x="190.667" y="236.194" width="95.3333" height="6.65116" fill="#014751"/>
<rect x="228.367" y="288.549" width="73.1894" height="6.8206" transform="rotate(-43.767 228.367 288.549)" fill="#014751"/>
<rect x="209.621" y="287.853" width="74.682" height="6.65116" transform="rotate(-43.767 209.621 287.853)" fill="#014751"/>
<rect x="190.839" y="287.199" width="74.9071" height="7.1814" transform="rotate(-42.838 190.839 287.199)" fill="#014751"/>
<rect y="105.062" width="95.3333" height="6.65116" fill="#014751"/>
<rect y="118.364" width="95.3333" height="6.65116" fill="#014751"/>
<rect y="182.658" width="95.3333" height="6.65116" fill="#014751"/>
<rect y="195.961" width="95.3333" height="6.65116" fill="#014751"/>
<rect y="209.263" width="95.3333" height="6.65116" fill="#014751"/>
<rect y="131.667" width="95.3333" height="6.65116" fill="#014751"/>
<rect x="37.7" y="184.022" width="73.1894" height="6.8206" transform="rotate(-43.767 37.7 184.022)" fill="#014751"/>
<rect x="18.9544" y="183.326" width="74.682" height="6.65116" transform="rotate(-43.767 18.9544 183.326)" fill="#014751"/>
<rect x="0.171936" y="182.672" width="74.9071" height="7.1814" transform="rotate(-42.838 0.171936 182.672)" fill="#014751"/>
<rect x="87.8562" y="105.062" width="95.3333" height="6.65116" fill="#014751"/>
<rect x="87.8562" y="118.364" width="95.3333" height="6.65116" fill="#014751"/>
<rect x="87.8562" y="182.658" width="95.3333" height="6.65116" fill="#014751"/>
<rect x="87.8562" y="195.961" width="95.3333" height="6.65116" fill="#014751"/>
<rect x="87.8562" y="209.263" width="95.3333" height="6.65116" fill="#014751"/>
<rect x="87.8562" y="131.667" width="95.3333" height="6.65116" fill="#014751"/>
<rect x="125.556" y="184.022" width="73.1894" height="6.8206" transform="rotate(-43.767 125.556 184.022)" fill="#014751"/>
<rect x="106.811" y="183.326" width="74.682" height="6.65116" transform="rotate(-43.767 106.811 183.326)" fill="#014751"/>
<rect x="88.0281" y="182.672" width="74.9071" height="7.1814" transform="rotate(-42.838 88.0281 182.672)" fill="#014751"/>
<rect y="0.381836" width="95.3333" height="6.65116" fill="#014751"/>
<rect y="13.6844" width="95.3333" height="6.65116" fill="#014751"/>
<rect y="77.9786" width="95.3333" height="6.65116" fill="#014751"/>
<rect y="91.2811" width="95.3333" height="6.65116" fill="#014751"/>
<rect y="104.584" width="95.3333" height="6.65116" fill="#014751"/>
<rect y="26.9868" width="95.3333" height="6.65116" fill="#014751"/>
<rect x="37.7" y="79.3419" width="73.1894" height="6.8206" transform="rotate(-43.767 37.7 79.3419)" fill="#014751"/>
<rect x="18.9544" y="78.6458" width="74.682" height="6.65116" transform="rotate(-43.767 18.9544 78.6458)" fill="#014751"/>
<rect x="0.171936" y="77.992" width="74.9071" height="7.1814" transform="rotate(-42.838 0.171936 77.992)" fill="#014751"/>
</svg>
