<svg width="82" height="321" viewBox="0 0 82 321" fill="none" xmlns="http://www.w3.org/2000/svg">
<rect x="95.3334" y="110.853" width="95.3333" height="6.65116" transform="rotate(-180 95.3334 110.853)" fill="#0F2830"/>
<rect x="95.3334" y="97.5507" width="95.3333" height="6.65116" transform="rotate(-180 95.3334 97.5507)" fill="#0F2830"/>
<rect x="95.3334" y="33.2565" width="95.3333" height="6.65116" transform="rotate(-180 95.3334 33.2565)" fill="#0F2830"/>
<rect x="95.3334" y="19.954" width="95.3333" height="6.65116" transform="rotate(-180 95.3334 19.954)" fill="#0F2830"/>
<rect x="95.3334" y="6.65149" width="95.3333" height="6.65116" transform="rotate(-180 95.3334 6.65149)" fill="#0F2830"/>
<rect x="95.3334" y="84.2484" width="95.3333" height="6.65116" transform="rotate(-180 95.3334 84.2484)" fill="#0F2830"/>
<rect x="57.6334" y="31.8932" width="73.1894" height="6.8206" transform="rotate(136.233 57.6334 31.8932)" fill="#0F2830"/>
<rect x="76.379" y="32.5894" width="74.682" height="6.65116" transform="rotate(136.233 76.379 32.5894)" fill="#0F2830"/>
<rect x="95.1615" y="33.2432" width="74.9071" height="7.1814" transform="rotate(137.162 95.1615 33.2432)" fill="#0F2830"/>
<rect x="127.333" y="215.381" width="95.3333" height="6.65116" transform="rotate(-180 127.333 215.381)" fill="#0F2830"/>
<rect x="127.333" y="202.078" width="95.3333" height="6.65116" transform="rotate(-180 127.333 202.078)" fill="#0F2830"/>
<rect x="127.333" y="137.784" width="95.3333" height="6.65116" transform="rotate(-180 127.333 137.784)" fill="#0F2830"/>
<rect x="127.333" y="124.481" width="95.3333" height="6.65116" transform="rotate(-180 127.333 124.481)" fill="#0F2830"/>
<rect x="127.333" y="111.179" width="95.3333" height="6.65116" transform="rotate(-180 127.333 111.179)" fill="#0F2830"/>
<rect x="127.333" y="188.776" width="95.3333" height="6.65116" transform="rotate(-180 127.333 188.776)" fill="#0F2830"/>
<rect x="89.6334" y="136.421" width="73.1894" height="6.8206" transform="rotate(136.233 89.6334 136.421)" fill="#0F2830"/>
<rect x="108.379" y="137.117" width="74.682" height="6.65116" transform="rotate(136.233 108.379 137.117)" fill="#0F2830"/>
<rect x="127.161" y="137.771" width="74.9071" height="7.1814" transform="rotate(137.162 127.161 137.771)" fill="#0F2830"/>
</svg>
