<svg width="160" height="142" viewBox="0 0 160 142" fill="none" xmlns="http://www.w3.org/2000/svg">
<g opacity="0.2">
<rect x="121.94" width="121.94" height="8.50744" fill="#AFF8C8"/>
<rect x="121.94" y="17.0151" width="121.94" height="8.50744" fill="#AFF8C8"/>
<rect x="121.94" y="99.2534" width="121.94" height="8.50744" fill="#AFF8C8"/>
<rect x="121.94" y="116.269" width="121.94" height="8.50744" fill="#AFF8C8"/>
<rect x="121.94" y="133.283" width="121.94" height="8.50744" fill="#AFF8C8"/>
<rect x="121.94" y="34.03" width="121.94" height="8.50744" fill="#AFF8C8"/>
<rect x="146.184" y="100.106" width="95.525" height="8.50744" transform="rotate(-43.767 146.184 100.106)" fill="#AFF8C8"/>
<rect x="122.16" y="99.2705" width="95.8129" height="9.18566" transform="rotate(-42.838 122.16 99.2705)" fill="#AFF8C8"/>
<rect width="121.94" height="8.50744" fill="#AFF8C8"/>
<rect y="17.0151" width="121.94" height="8.50744" fill="#AFF8C8"/>
<rect y="99.2534" width="121.94" height="8.50744" fill="#AFF8C8"/>
<rect y="116.269" width="121.94" height="8.50744" fill="#AFF8C8"/>
<rect y="133.283" width="121.94" height="8.50744" fill="#AFF8C8"/>
<rect y="34.03" width="121.94" height="8.50744" fill="#AFF8C8"/>
<rect x="48.2217" y="100.997" width="93.6159" height="8.72416" transform="rotate(-43.767 48.2217 100.997)" fill="#AFF8C8"/>
<rect x="24.2444" y="100.106" width="95.525" height="8.50744" transform="rotate(-43.767 24.2444 100.106)" fill="#AFF8C8"/>
<rect x="0.21991" y="99.2705" width="95.8129" height="9.18566" transform="rotate(-42.838 0.21991 99.2705)" fill="#AFF8C8"/>
</g>
</svg>
