<svg width="520" height="113" viewBox="0 0 520 113" fill="none" xmlns="http://www.w3.org/2000/svg">
<rect x="97" width="97" height="6.76744" fill="#E3E3E3"/>
<rect x="97" y="13.535" width="97" height="6.76744" fill="#E3E3E3"/>
<rect x="97" y="78.9534" width="97" height="6.76744" fill="#E3E3E3"/>
<rect x="97" y="92.4884" width="97" height="6.76744" fill="#E3E3E3"/>
<rect x="97" y="106.024" width="97" height="6.76744" fill="#E3E3E3"/>
<rect x="97" y="27.0701" width="97" height="6.76744" fill="#E3E3E3"/>
<rect x="135.359" y="80.3405" width="74.469" height="6.93984" transform="rotate(-43.767 135.359 80.3405)" fill="#E3E3E3"/>
<rect x="116.286" y="79.6321" width="75.9876" height="6.76744" transform="rotate(-43.767 116.286 79.6321)" fill="#E3E3E3"/>
<rect x="97.1749" y="78.9669" width="76.2166" height="7.30695" transform="rotate(-42.838 97.1749 78.9669)" fill="#E3E3E3"/>
<rect width="97" height="6.76744" fill="#E3E3E3"/>
<rect y="13.535" width="97" height="6.76744" fill="#E3E3E3"/>
<rect y="78.9534" width="97" height="6.76744" fill="#E3E3E3"/>
<rect y="92.4884" width="97" height="6.76744" fill="#E3E3E3"/>
<rect y="106.024" width="97" height="6.76744" fill="#E3E3E3"/>
<rect y="27.0701" width="97" height="6.76744" fill="#E3E3E3"/>
<rect x="38.3591" y="80.3405" width="74.469" height="6.93984" transform="rotate(-43.767 38.3591 80.3405)" fill="#E3E3E3"/>
<rect x="19.2858" y="79.6321" width="75.9876" height="6.76744" transform="rotate(-43.767 19.2858 79.6321)" fill="#E3E3E3"/>
<rect x="0.174927" y="78.9669" width="76.2166" height="7.30695" transform="rotate(-42.838 0.174927 78.9669)" fill="#E3E3E3"/>
<rect x="291" width="97" height="6.76744" fill="#E3E3E3"/>
<rect x="291" y="13.535" width="97" height="6.76744" fill="#E3E3E3"/>
<rect x="291" y="78.9534" width="97" height="6.76744" fill="#E3E3E3"/>
<rect x="291" y="92.4884" width="97" height="6.76744" fill="#E3E3E3"/>
<rect x="291" y="106.024" width="97" height="6.76744" fill="#E3E3E3"/>
<rect x="291" y="27.0701" width="97" height="6.76744" fill="#E3E3E3"/>
<rect x="329.359" y="80.3405" width="74.469" height="6.93984" transform="rotate(-43.767 329.359 80.3405)" fill="#E3E3E3"/>
<rect x="310.286" y="79.6321" width="75.9876" height="6.76744" transform="rotate(-43.767 310.286 79.6321)" fill="#E3E3E3"/>
<rect x="291.175" y="78.9669" width="76.2166" height="7.30695" transform="rotate(-42.838 291.175 78.9669)" fill="#E3E3E3"/>
<rect x="194" width="97" height="6.76744" fill="#E3E3E3"/>
<rect x="194" y="13.535" width="97" height="6.76744" fill="#E3E3E3"/>
<rect x="194" y="78.9534" width="97" height="6.76744" fill="#E3E3E3"/>
<rect x="194" y="92.4884" width="97" height="6.76744" fill="#E3E3E3"/>
<rect x="194" y="106.024" width="97" height="6.76744" fill="#E3E3E3"/>
<rect x="194" y="27.0701" width="97" height="6.76744" fill="#E3E3E3"/>
<rect x="232.359" y="80.3405" width="74.469" height="6.93984" transform="rotate(-43.767 232.359 80.3405)" fill="#E3E3E3"/>
<rect x="213.286" y="79.6321" width="75.9876" height="6.76744" transform="rotate(-43.767 213.286 79.6321)" fill="#E3E3E3"/>
<rect x="194.175" y="78.9669" width="76.2166" height="7.30695" transform="rotate(-42.838 194.175 78.9669)" fill="#E3E3E3"/>
<rect x="485" width="97" height="6.76744" fill="#E3E3E3"/>
<rect x="485" y="13.535" width="97" height="6.76744" fill="#E3E3E3"/>
<rect x="485" y="78.9534" width="97" height="6.76744" fill="#E3E3E3"/>
<rect x="485" y="92.4884" width="97" height="6.76744" fill="#E3E3E3"/>
<rect x="485" y="106.024" width="97" height="6.76744" fill="#E3E3E3"/>
<rect x="485" y="27.0701" width="97" height="6.76744" fill="#E3E3E3"/>
<rect x="504.286" y="79.6321" width="75.9876" height="6.76744" transform="rotate(-43.767 504.286 79.6321)" fill="#E3E3E3"/>
<rect x="485.175" y="78.9669" width="76.2166" height="7.30695" transform="rotate(-42.838 485.175 78.9669)" fill="#E3E3E3"/>
<rect x="388" width="97" height="6.76744" fill="#E3E3E3"/>
<rect x="388" y="13.535" width="97" height="6.76744" fill="#E3E3E3"/>
<rect x="388" y="78.9534" width="97" height="6.76744" fill="#E3E3E3"/>
<rect x="388" y="92.4884" width="97" height="6.76744" fill="#E3E3E3"/>
<rect x="388" y="106.024" width="97" height="6.76744" fill="#E3E3E3"/>
<rect x="388" y="27.0701" width="97" height="6.76744" fill="#E3E3E3"/>
<rect x="426.359" y="80.3405" width="74.469" height="6.93984" transform="rotate(-43.767 426.359 80.3405)" fill="#E3E3E3"/>
<rect x="407.286" y="79.6321" width="75.9876" height="6.76744" transform="rotate(-43.767 407.286 79.6321)" fill="#E3E3E3"/>
<rect x="388.175" y="78.9669" width="76.2166" height="7.30695" transform="rotate(-42.838 388.175 78.9669)" fill="#E3E3E3"/>
</svg>
