<svg width="295" height="303" viewBox="0 0 295 303" fill="none" xmlns="http://www.w3.org/2000/svg">
<g filter="url(#filter0_d_246_80)">
<path d="M67.0716 15.129C59.0716 14.129 59.5716 19.129 59.0716 23.629C60.5716 32.129 59.0716 40.129 59.0716 44.129C59.0716 47.329 53.4049 61.4624 50.5716 68.129C40.0716 82.629 49.5716 98.629 50.5716 102.129C51.3716 104.929 66.5716 116.296 74.0716 121.629C70.0716 121.629 50.4049 114.629 41.0716 111.129C35.0716 109.529 33.2383 115.796 33.0716 119.129C34.0716 170.129 69.3361 174.107 71.5716 175.129C74.5715 176.5 83.4049 179.296 87.5716 180.129L52.5716 177.629C43.7716 177.229 38.9049 171.129 37.5716 168.129C30.7716 164.529 26.4049 169.629 25.0716 172.629C23.5715 186 46.0715 206.5 52.5716 209.5C59.7495 212.813 96.5716 219.129 104.072 219.129C110.072 219.129 108.905 221.129 107.572 222.129C101.972 231.729 75.9049 231.796 63.5716 230.629C48.7716 230.629 50.0716 237.629 52.5716 241.129C71.0716 274.629 152.572 268.629 166.572 262.629C177.772 257.829 184.572 246.296 186.572 241.129C194.972 246.329 215.405 241.629 224.572 238.629C251.372 233.429 261.072 208.462 262.572 196.629C270.572 179.129 269.572 152.129 269.072 136.129C268.868 129.629 257.572 91.129 251.572 83.629C246.772 77.629 242.238 84.4624 240.572 88.629C237.772 98.229 228.738 112.962 224.572 119.129C215.372 129.529 208.405 130.462 206.072 129.629C230.472 101.229 225.108 79.1658 220.572 68.129C207.572 36.5 186.072 35.129 182.072 35.129C178.872 35.129 179.425 49.629 179.572 49.629C179.719 49.629 179.619 52 179.572 52.129C177.972 56.529 172.905 64.629 170.572 68.129C165.372 76.529 160.738 77.2957 159.072 76.629C166.272 65.829 162.072 44.4624 159.072 35.129C157.072 23.629 149.572 21.129 147.072 17.629C145.072 14.829 129.238 16.4624 121.572 17.629C113.572 19.629 115.572 26.4624 117.572 29.629C122.772 36.429 124.072 43.7957 124.072 46.629C121.572 60.129 117.572 52.629 114.572 52.129C112.172 51.729 108.905 36.9624 107.572 29.629C103.972 17.629 73.905 14.9624 67.0716 15.129Z" fill="#F3A361"/>
</g>
<path d="M121.572 99.129C120.372 96.729 112.405 88.7957 108.572 85.129C100.572 85.129 125.239 118.796 138.572 135.629H136.072C130.872 131.229 99.9053 133.796 85.072 135.629C75.872 136.829 81.2386 140.796 85.072 142.629C92.672 151.429 126.572 146.296 142.572 142.629C146.072 145.129 155.072 170.629 157.072 173.629C158.672 176.029 160.405 182.629 161.072 185.629C155.072 183.229 135.905 183.629 127.072 184.129C113.072 184.129 105.239 188.796 103.072 191.129C109.52 204.025 154.347 192.811 160.921 191.167L161.072 191.129C167.072 189.629 168.572 195.129 165.572 197.129C162.572 199.129 134.572 231.629 129.572 234.129C125.572 236.129 124.572 237.629 124.572 238.129C125.772 241.729 135.405 239.629 140.072 238.129C145.572 237.129 146.072 235.129 157.072 224.629C165.872 216.229 168.405 206.796 168.572 203.129C168.572 205.129 179.072 236.129 182.572 240.629C185.372 244.229 186.072 242.129 186.072 240.629C184.572 218.129 178.572 202.129 178.072 198.629C177.672 195.829 178.572 195.462 179.072 195.629C189.472 198.429 201.072 196.462 205.572 195.129C211.072 194.129 222.572 180.629 222.572 178.129C222.572 175.629 226.072 168.629 222.572 168.629C219.772 168.629 212.072 174.962 208.572 178.129C205.772 180.129 198.739 182.962 195.572 184.129C190.772 183.729 180.572 188.629 176.072 191.129C172.472 169.129 159.239 144.962 153.072 135.629C177.072 119.629 180.572 105.129 183.572 99.129C185.972 94.329 182.572 94.4623 180.572 95.129L167.572 105.129C160.372 109.929 152.905 124.796 150.072 131.629L132.072 109.629C137.572 99.129 137.572 80.129 129.072 82.129C120.572 84.129 123.072 102.129 121.572 99.129Z" fill="#F3DEE5"/>
<defs>
<filter id="filter0_d_246_80" x="0" y="0" width="294.401" height="302.306" filterUnits="userSpaceOnUse" color-interpolation-filters="sRGB">
<feFlood flood-opacity="0" result="BackgroundImageFix"/>
<feColorMatrix in="SourceAlpha" type="matrix" values="0 0 0 0 0 0 0 0 0 0 0 0 0 0 0 0 0 0 127 0" result="hardAlpha"/>
<feMorphology radius="5" operator="erode" in="SourceAlpha" result="effect1_dropShadow_246_80"/>
<feOffset dy="10"/>
<feGaussianBlur stdDeviation="15"/>
<feComposite in2="hardAlpha" operator="out"/>
<feColorMatrix type="matrix" values="0 0 0 0 0.198611 0 0 0 0 0.200253 0 0 0 0 0.216667 0 0 0 0.2 0"/>
<feBlend mode="normal" in2="BackgroundImageFix" result="effect1_dropShadow_246_80"/>
<feBlend mode="normal" in="SourceGraphic" in2="effect1_dropShadow_246_80" result="shape"/>
</filter>
</defs>
</svg>
