<svg width="296" height="387" viewBox="0 0 296 387" fill="none" xmlns="http://www.w3.org/2000/svg">
<g filter="url(#filter0_d_246_79)">
<path d="M25.9975 116.951C24.8525 97.486 48.688 68.6541 59.3935 57.0625C62.7845 56.1539 70.9592 45.9674 105.15 43.3484C132.502 41.2532 161.329 72.1527 172.324 87.8643C156.179 90.0094 123.686 112.527 123.868 113.206C124.013 113.748 133.545 111.34 138.292 110.068C161.662 106.132 185.729 115.288 194.842 120.357C210.519 128.95 224.832 148.183 230.029 156.725C202.211 163.597 188.306 177.355 184.831 183.374C188.585 183.822 218.294 178.042 230.006 175.631C239.375 173.702 244.859 177.709 246.429 179.954C266.071 205.512 270.461 255.172 270.2 276.807C271.743 295.584 264.411 327.546 260.553 341.18C257.113 339.194 236.108 335.857 226.035 334.437C197.935 324.52 199.136 315.616 197.014 310.229C194.702 304.362 194.26 301.759 192.931 300.419C188.547 303.047 188.645 308.837 171.095 308.45C153.545 308.064 146.52 295.409 136.152 286.556C127.857 279.474 124.022 267.514 123.142 262.419C122.996 253.735 133.338 240.787 134.331 239.067C135.324 237.347 137.988 233.726 135.457 235.131C132.926 236.536 120.27 243.562 106.656 244.302C93.0432 245.042 74.8737 217.926 69.2887 199.795C63.7038 181.665 75.7528 158.809 77.7388 155.37C79.3275 152.618 78.126 151.389 77.3266 151.119C71.8727 154.276 59.3105 161.471 52.6931 164.988C44.4213 169.385 38.7651 167.266 35.2766 162.386C29.6413 154.502 24.402 132.7 25.9975 116.951Z" fill="#61B379"/>
</g>
<path d="M219.249 295.548C216.718 296.953 212.833 300.902 217.542 305.455C223.429 311.147 227.437 296.262 219.249 295.548Z" fill="#AFF8C8"/>
<path d="M44.2292 46.5875C44.8108 48.7579 171.938 206.698 235.429 285.397C240.39 288.72 237.972 281.323 236.143 277.21C233.102 268.574 62.0579 53.4411 54.2696 46.078C46.4813 38.7149 43.5023 43.8746 44.2292 46.5875Z" fill="#AFF8C8"/>
<path d="M50.7524 130.616C49.9761 116.867 65.761 111.572 73.7504 110.643C76.8755 114.167 69.7784 117.522 62.2336 124.632C56.1977 130.32 52.0646 130.992 50.7524 130.616Z" fill="#AFF8C8"/>
<path d="M132.912 73.7096C138.628 73.3409 137.498 76.3576 136.219 77.912C132.38 82.5752 115.92 86.2585 112.348 86.4889C108.775 86.7194 107.733 85.5447 107.503 81.9718C107.272 78.3989 125.766 74.1704 132.912 73.7096Z" fill="#AFF8C8"/>
<path d="M114.451 181.152C123.2 174.737 121.116 182.516 118.981 187.207C116.604 190.994 110.168 199.891 103.444 205.182C96.7199 210.473 96.7501 205.522 97.6057 202.385C99.5755 197.98 105.702 187.567 114.451 181.152Z" fill="#AFF8C8"/>
<path d="M170.4 257.025C176.543 249.564 177.756 255.539 177.595 259.459C177.777 260.137 176.525 264.689 170.063 277.47C163.601 290.25 162.696 281.624 163.05 275.714C162.941 272.593 164.258 264.487 170.4 257.025Z" fill="#AFF8C8"/>
<path d="M221.605 222.952C212.487 223.65 216.594 218.721 219.787 216.169C233.981 209.458 240.365 214.29 239.372 216.01C238.379 217.73 233.002 222.078 221.605 222.952Z" fill="#AFF8C8"/>
<path d="M185.275 138.913C193.308 138.506 189.591 142.361 186.729 144.339C177.464 150.456 162.991 150.7 163.439 146.945C163.887 143.19 175.235 139.423 185.275 138.913Z" fill="#AFF8C8"/>
<defs>
<filter id="filter0_d_246_79" x="0.707031" y="28.2469" width="294.703" height="347.933" filterUnits="userSpaceOnUse" color-interpolation-filters="sRGB">
<feFlood flood-opacity="0" result="BackgroundImageFix"/>
<feColorMatrix in="SourceAlpha" type="matrix" values="0 0 0 0 0 0 0 0 0 0 0 0 0 0 0 0 0 0 127 0" result="hardAlpha"/>
<feMorphology radius="5" operator="erode" in="SourceAlpha" result="effect1_dropShadow_246_79"/>
<feOffset dy="10"/>
<feGaussianBlur stdDeviation="15"/>
<feComposite in2="hardAlpha" operator="out"/>
<feColorMatrix type="matrix" values="0 0 0 0 0.198611 0 0 0 0 0.200253 0 0 0 0 0.216667 0 0 0 0.2 0"/>
<feBlend mode="normal" in2="BackgroundImageFix" result="effect1_dropShadow_246_79"/>
<feBlend mode="normal" in="SourceGraphic" in2="effect1_dropShadow_246_79" result="shape"/>
</filter>
</defs>
</svg>
