<svg width="258" height="394" viewBox="0 0 258 394" fill="none" xmlns="http://www.w3.org/2000/svg">
<g filter="url(#filter0_d_246_81)">
<path d="M227.922 81.7043C223.99 62.6058 193.504 40.9254 180.163 32.4996C176.653 32.4996 166.12 24.7759 132.417 31.0953C105.454 36.1508 85.6067 73.4584 79.0533 91.4803C95.2028 89.3738 132.417 102.715 132.417 103.417C132.417 103.979 122.587 104.119 117.672 104.119C94.0794 106.366 73.202 121.439 65.7124 128.694C52.7929 141.052 43.9457 163.334 41.1371 172.93C69.7849 172.368 86.777 182.058 91.692 186.973C88.1813 188.377 57.9888 190.484 46.0522 191.186C36.5029 191.748 32.2433 197.037 31.3071 199.612C18.9492 229.383 27.5623 278.487 33.4135 299.317C36.7839 317.854 52.1376 346.829 59.3931 359C62.2017 356.191 81.6279 347.532 90.99 343.553C115.565 326.701 112.101 318.411 112.757 312.658C113.471 306.393 113.225 303.764 114.161 302.126C119.076 303.53 120.48 309.147 137.332 304.232C154.184 299.317 157.694 285.274 165.418 274.04C171.597 265.052 172.205 252.507 171.737 247.358C169.631 238.932 156.29 229.102 154.886 227.698C153.482 226.293 149.971 223.485 152.779 224.187C155.588 224.889 169.631 228.4 182.972 225.591C196.313 222.783 206.845 191.888 207.547 172.93C208.249 153.972 190.696 135.014 187.887 132.205C185.64 129.958 186.483 128.46 187.185 127.992C193.27 129.631 207.266 133.329 214.569 135.014C223.697 137.12 228.612 133.609 230.718 127.992C234.121 118.918 233.539 96.5035 227.922 81.7043Z" fill="#61B379"/>
<path d="M87.4788 304.232C90.2874 304.934 95.062 307.743 91.6917 313.36C87.4788 320.382 79.7551 307.041 87.4788 304.232Z" fill="#AFF8C8"/>
<path d="M192.099 18.4567C192.099 20.7035 110.182 206.165 69.2228 298.615C65.2908 303.109 65.7121 295.338 66.4142 290.891C67.1164 281.763 176.652 29.6911 182.269 20.5631C187.886 11.4352 192.099 15.6481 192.099 18.4567Z" fill="#AFF8C8"/>
<path d="M207.547 101.311C204.738 87.8292 188.12 86.7994 180.163 87.9697C178.056 92.1826 185.78 93.5869 194.908 98.5019C202.21 102.434 206.376 102.013 207.547 101.311Z" fill="#AFF8C8"/>
<path d="M113.458 67.6073C107.841 68.7307 109.714 71.3521 111.352 72.5223C116.267 76.0331 133.119 75.3309 136.629 74.6288C140.14 73.9266 140.842 72.5223 140.14 69.0116C139.438 65.5008 120.48 66.203 113.458 67.6073Z" fill="#AFF8C8"/>
<path d="M159.098 166.611C148.987 162.679 153.013 169.653 156.29 173.632C159.566 176.675 168.086 183.603 175.95 186.973C183.814 190.343 182.503 185.569 180.865 182.76C177.822 179.015 169.209 170.543 159.098 166.611Z" fill="#AFF8C8"/>
<path d="M124.693 254.38C116.829 248.762 117.203 254.848 118.373 258.592C118.373 259.295 120.761 263.367 130.31 274.04C139.859 284.713 138.502 276.146 136.629 270.529C135.927 267.486 132.557 259.997 124.693 254.38Z" fill="#AFF8C8"/>
<path d="M66.4142 234.719C75.4018 233.034 70.1591 229.336 66.4142 227.698C50.9669 224.889 46.0518 231.209 47.4561 232.613C48.8604 234.017 55.1798 236.826 66.4142 234.719Z" fill="#AFF8C8"/>
<path d="M79.755 144.142C71.8909 145.827 76.4783 148.589 79.755 149.759C90.2872 153.27 104.33 149.759 102.926 146.248C101.522 142.737 89.5851 142.035 79.755 144.142Z" fill="#AFF8C8"/>
</g>
<defs>
<filter id="filter0_d_246_81" x="0" y="0" width="257.822" height="394" filterUnits="userSpaceOnUse" color-interpolation-filters="sRGB">
<feFlood flood-opacity="0" result="BackgroundImageFix"/>
<feColorMatrix in="SourceAlpha" type="matrix" values="0 0 0 0 0 0 0 0 0 0 0 0 0 0 0 0 0 0 127 0" result="hardAlpha"/>
<feMorphology radius="5" operator="erode" in="SourceAlpha" result="effect1_dropShadow_246_81"/>
<feOffset dy="10"/>
<feGaussianBlur stdDeviation="15"/>
<feComposite in2="hardAlpha" operator="out"/>
<feColorMatrix type="matrix" values="0 0 0 0 0.198611 0 0 0 0 0.200253 0 0 0 0 0.216667 0 0 0 0.2 0"/>
<feBlend mode="normal" in2="BackgroundImageFix" result="effect1_dropShadow_246_81"/>
<feBlend mode="normal" in="SourceGraphic" in2="effect1_dropShadow_246_81" result="shape"/>
</filter>
</defs>
</svg>
