<svg width="658" height="651" viewBox="0 0 658 651" fill="none" xmlns="http://www.w3.org/2000/svg">
<path d="M179.021 86.7984V323.032C179.021 331.782 180.817 340.415 184.351 348.411C194.202 370.72 225.723 385.378 249.653 390.015C297.862 399.285 320.17 406.47 329.383 419.971C338.653 406.47 360.962 399.285 409.112 390.015C433.043 385.437 464.564 370.72 474.414 348.411C477.949 340.415 479.745 331.782 479.745 323.032V86.7984H179.021Z" fill="#427443"/>
<path d="M484.498 9.32883V323.033C484.498 332.477 482.585 341.632 478.761 350.324C473.895 361.391 463.755 371.589 449.443 379.933C437.796 386.711 423.425 392.1 410.041 394.65C360.442 404.153 341.089 411.222 333.266 422.636L329.384 428.257L325.503 422.636C317.68 411.222 298.269 404.153 248.728 394.65C235.343 392.1 220.973 386.711 209.326 379.933C195.014 371.646 184.874 361.391 180.007 350.324C176.183 341.69 174.271 332.535 174.271 323.033V9.32883H258.056V23.8146H287.491V9.32883H371.277V23.8146H400.712V9.32883H484.498ZM493.827 0H391.384V14.4858H380.606V0H278.221V14.4858H267.444V0H165V323.033C165 333.81 167.202 344.24 171.548 354.089C177.226 366.953 188.699 378.658 204.691 387.987C217.207 395.287 232.62 401.023 247.047 403.805C292.649 412.555 311.828 419.102 317.912 427.909L321.794 433.529L329.5 444.713L337.207 433.529L341.089 427.909C347.173 419.102 366.352 412.555 411.953 403.805C426.323 401.023 441.736 395.287 454.309 387.987C470.302 378.658 481.774 366.953 487.453 354.089C491.798 344.24 494 333.81 494 323.033V0H493.827Z" fill="#427443"/>
<path d="M405.404 14.021V28.5066H366.64V14.021H292.241V28.5066H253.42V14.021H179.021V28.5066V83.4946H479.802V28.5066V14.021H405.404Z" fill="#427443"/>
<path d="M203.935 70.4007L192.752 43.2834H197.677L204.167 58.7542L206.311 64.8382C207.18 62.1149 207.933 60.0869 208.455 58.7542L214.944 43.2834H219.928L208.745 70.4007H203.993H203.935Z" fill="white"/>
<path d="M240.846 70.3428V43.2834H261.879V47.4553H245.713V54.0608H260.952V58.1748H245.713V66.1708H262.459V70.3428H240.846Z" fill="white"/>
<path d="M284.356 70.3428V43.2834H295.713C299.538 43.2834 302.492 44.2684 304.578 46.1805C306.664 48.0927 307.649 50.5842 307.649 53.5973C307.649 55.4514 307.186 57.1897 306.201 58.8121C305.215 60.4345 303.883 61.6514 302.087 62.4625L307.997 70.3428H302.087L297.393 63.7952C296.582 63.7952 295.134 63.8532 293.048 63.8532H289.165V70.2848H284.298L284.356 70.3428ZM289.224 59.7392H296.061C298.089 59.7392 299.653 59.1598 300.87 58.0009C302.087 56.8421 302.666 55.3355 302.666 53.5973C302.666 51.859 302.087 50.3524 300.87 49.1935C299.653 48.0347 298.089 47.4553 296.119 47.4553H289.281V59.7392H289.224Z" fill="white"/>
<path d="M330.249 70.3428V43.2834H335.117V70.4007H330.249V70.3428Z" fill="white"/>
<path d="M366.057 70.3428V47.4553H356.497V43.2834H380.427V47.4553H370.866V70.3428H366H366.057Z" fill="white"/>
<path d="M395.722 70.3427L407.948 43.2254H412.526L424.752 70.3427H419.827L417.741 65.6493H402.791L400.647 70.3427H395.722ZM404.529 61.8251H416.003L412.931 54.9299C412.584 54.1188 412.178 53.1916 411.715 52.1486C411.252 51.0478 410.904 50.2365 410.613 49.5412L410.208 48.4982C409.281 50.9898 408.412 53.1916 407.601 54.9878L404.472 61.8251H404.529Z" fill="white"/>
<path d="M444.337 66.8665L446.192 63.2161C448.799 65.3601 451.812 66.403 455.173 66.403C456.737 66.403 458.128 66.0553 459.286 65.3601C460.445 64.6647 461.025 63.7377 461.025 62.5788C461.025 61.8254 460.735 61.1302 460.098 60.6087C459.46 60.0872 458.823 59.6816 458.186 59.5078C457.548 59.3339 456.621 59.0442 455.404 58.7546C454.188 58.4648 453.203 58.1751 452.45 57.9433C451.697 57.7115 450.769 57.3639 449.784 56.9003C448.799 56.4368 448.046 55.9733 447.466 55.3939C446.886 54.8723 446.366 54.177 445.96 53.3658C445.554 52.5546 445.381 51.5695 445.381 50.5846C445.381 48.2088 446.366 46.2967 448.278 44.964C450.19 43.6314 452.507 42.936 455.231 42.936C458.766 42.936 461.952 43.9211 464.85 45.8912L462.995 49.5995C460.619 48.093 458.07 47.3398 455.288 47.3398C454.594 47.3398 453.898 47.4556 453.203 47.6295C452.508 47.8033 451.87 48.1509 451.291 48.6725C450.711 49.1939 450.421 49.8313 450.421 50.5846C450.421 51.5695 450.885 52.3229 451.754 52.7864C452.681 53.3078 454.129 53.7714 456.1 54.235C457.548 54.6985 458.766 55.1041 459.866 55.4518C460.967 55.7994 462.01 56.2629 463.053 56.9003C464.096 57.5377 464.85 58.2909 465.429 59.276C465.95 60.261 466.24 61.3619 466.24 62.5788C466.24 65.2441 465.139 67.2722 462.995 68.6627C460.793 70.0534 458.244 70.8067 455.288 70.8067C450.885 70.8067 447.234 69.5319 444.454 66.9244L444.337 66.8665Z" fill="white"/>
<path d="M444.98 224.182L421.05 210.333L439.186 199.556C442.257 197.701 443.3 193.703 441.446 190.632C439.592 187.561 435.594 186.519 432.523 188.372L357.139 233.22L342.885 224.935L357.429 216.476C358.008 216.243 358.529 215.954 358.993 215.548L427.771 175.626C430.9 173.829 431.944 169.831 430.147 166.702C428.351 163.574 424.353 162.53 421.224 164.327L361.542 198.976V182.173L410.157 154.186C413.286 152.39 414.329 148.392 412.532 145.264C410.736 142.134 406.738 141.091 403.609 142.887L361.485 167.165V151.231L386.805 137.21C389.935 135.47 391.094 131.472 389.355 128.344C387.617 125.215 383.619 124.056 380.49 125.795L361.485 136.34V120.464C361.485 116.871 358.588 113.917 354.938 113.917C351.286 113.917 348.389 116.814 348.389 120.464V206.625L335.874 213.925V117.508C335.874 113.917 332.977 110.961 329.326 110.961C325.676 110.961 322.779 113.858 322.779 117.508V182.578L309.105 174.582V121.449C309.105 117.856 306.207 114.901 302.556 114.901C298.906 114.901 296.009 117.798 296.009 121.449V166.934L282.045 158.764V131.125C282.045 127.533 279.148 124.577 275.498 124.577C271.846 124.577 268.949 127.475 268.949 131.125V151.115L254.812 142.83C251.683 141.034 247.685 142.076 245.888 145.147C244.092 148.276 245.135 152.274 248.206 154.071L271.383 167.629C271.905 168.035 272.484 168.44 273.179 168.672L298.501 183.506C298.964 183.854 299.485 184.201 300.007 184.374L322.605 197.644V213.288L237.487 164.037C234.358 162.241 230.36 163.283 228.563 166.412C226.767 169.542 227.81 173.54 230.939 175.335L289.462 209.174L275.324 217.518L226.304 187.678C223.233 185.823 219.235 186.75 217.322 189.879C215.468 192.95 216.395 196.948 219.524 198.86L262.576 225.109L246.526 234.553L220.278 217.981C217.207 216.069 213.209 216.996 211.296 220.01C209.384 223.08 210.253 227.079 213.324 228.991L233.894 241.97L216.975 251.936C213.846 253.79 212.861 257.789 214.657 260.859C215.874 262.946 218.076 264.047 220.278 264.047C221.379 264.047 222.537 263.756 223.58 263.119L302.441 216.707L316.579 224.877L226.767 277.026C223.638 278.822 222.595 282.82 224.392 285.948C225.608 288.034 227.81 289.193 230.012 289.193C231.113 289.193 232.272 288.904 233.257 288.325L295.835 251.995V358.493C295.835 362.086 298.732 365.041 302.382 365.041C306.033 365.041 308.931 362.143 308.931 358.493V244.404L322.605 236.465V374.602C322.605 378.194 325.502 381.149 329.153 381.149C332.803 381.149 335.7 378.252 335.7 374.602V235.944L350.418 244.461V358.493C350.418 362.086 353.315 365.041 356.965 365.041C360.615 365.041 363.512 362.143 363.512 358.493V252.052L424.179 287.166C425.222 287.745 426.323 288.034 427.424 288.034C429.684 288.034 431.886 286.876 433.102 284.79C434.898 281.661 433.856 277.663 430.726 275.867L369.887 240.695L383.214 232.757L435.014 262.481C436.057 263.062 437.158 263.351 438.259 263.351C440.519 263.351 442.72 262.192 443.938 260.049C445.734 256.919 444.633 252.921 441.504 251.125L396.077 225.109L408.013 217.981L438.259 235.48C439.302 236.06 440.403 236.35 441.504 236.35C443.764 236.35 445.965 235.191 447.183 233.105C448.979 229.976 447.936 225.977 444.807 224.182H444.98Z" fill="url(#paint0_linear_5_20)"/>
<path d="M87.2121 637.266C77.3536 646.41 65.2773 651 50.9823 651C36.6873 651 24.5755 646.446 14.7525 637.373C4.89409 628.301 0 616.453 0 601.866V529H25.3152V600.763C25.3152 608.554 27.78 614.959 32.7443 619.939C37.7086 624.921 43.7645 627.446 51.0177 627.446C58.2703 627.446 64.2913 624.956 69.1854 619.939C74.0795 614.923 76.5089 608.554 76.5089 600.763V529H102V601.866C102 616.346 97.0705 628.123 87.2121 637.266Z" fill="black"/>
<path d="M128.036 649V529H156.319L187.583 576.19C190.103 579.992 193.048 584.469 196.455 589.551C199.862 594.668 202.594 598.825 204.723 602.024L208.094 607.14V529H234V649H206.64L176.618 604.084C173.388 599.287 169.875 593.992 166.007 588.236C162.174 582.479 159.122 577.931 156.851 574.555L153.906 569.545V649H128H128.036Z" fill="black"/>
<path d="M246 649L297.739 529H323.644L374 649H349.268L341.338 629.918H280.717L272.542 649H246ZM289.493 609.557H332.916L323.609 587.134L310.833 556.397C306.622 568.763 302.694 579.139 298.978 587.525L289.529 609.557H289.493Z" fill="black"/>
<path d="M390.036 648.964V529H412.495L430.614 554.577L453.109 586.371L475.173 554.542L493.541 529H516V648.964H490.021V573.441C488.024 577.384 484.181 583.494 478.451 591.771L452.927 629L427.021 591.629L415.985 574.435V649H390L390.036 648.964Z" fill="black"/>
<path d="M528 649L580.545 529H606.852L658 649H632.876L624.823 629.918H563.255L554.956 649H528ZM572.173 609.557H616.273L606.821 587.134L593.846 556.397C589.568 568.763 585.578 579.139 581.802 587.525L572.21 609.557H572.173Z" fill="black"/>
<defs>
<linearGradient id="paint0_linear_5_20" x1="331.644" y1="76.1952" x2="323.763" y2="606.721" gradientUnits="userSpaceOnUse">
<stop stop-color="white"/>
<stop offset="1" stop-color="#70B34A"/>
</linearGradient>
</defs>
</svg>
