<?xml version="1.0" encoding="UTF-8" ?>
<!DOCTYPE svg PUBLIC "-//W3C//DTD SVG 1.1//EN" "http://www.w3.org/Graphics/SVG/1.1/DTD/svg11.dtd">
<svg width="139pt" height="137pt" viewBox="0 0 139 137" version="1.1" xmlns="http://www.w3.org/2000/svg">
<path fill="#8c8c8c" stroke="#8c8c8c" stroke-width="0.09375" opacity="1.00" d=" M 55.80 0.00 L 83.76 0.00 C 85.59 7.66 87.07 15.40 88.72 23.11 C 95.66 19.06 101.93 13.96 108.83 9.83 C 115.45 16.44 122.05 23.06 128.67 29.67 C 124.05 36.31 119.56 43.05 114.93 49.70 C 122.83 51.33 130.72 53.01 138.61 54.66 C 138.61 63.89 138.62 73.12 138.61 82.34 C 130.71 83.99 122.83 85.68 114.93 87.30 C 119.57 93.94 124.04 100.69 128.67 107.33 C 122.06 113.80 115.46 120.28 108.80 126.70 C 101.92 122.73 95.67 117.73 88.69 113.93 C 87.13 121.63 85.46 129.31 83.86 137.00 L 55.78 137.00 C 54.30 129.18 52.32 121.45 51.01 113.60 C 44.31 118.10 37.73 122.78 30.96 127.18 C 24.45 120.55 17.92 113.95 11.43 107.30 C 15.92 100.65 20.36 93.96 24.73 87.22 C 16.86 85.85 9.12 83.86 1.25 82.46 C 1.13 73.14 1.05 63.81 1.30 54.49 C 9.15 53.18 16.85 51.13 24.70 49.80 C 20.40 43.01 15.90 36.36 11.43 29.70 C 17.92 23.05 24.45 16.44 30.97 9.82 C 37.73 14.23 44.31 18.90 51.01 23.40 C 52.33 15.55 54.28 7.82 55.80 0.00 M 59.96 32.89 C 56.93 34.10 53.22 37.50 50.13 34.81 C 44.38 30.92 38.67 26.97 32.87 23.15 C 30.38 25.80 27.57 28.15 25.25 30.94 C 28.84 37.60 33.83 43.64 37.75 50.18 C 37.85 52.93 35.88 55.38 35.08 57.98 C 27.52 59.95 19.82 61.31 12.22 63.17 C 12.26 66.85 12.30 70.53 12.19 74.22 C 19.77 76.05 27.51 77.15 35.08 79.01 C 35.87 82.13 39.45 85.62 36.67 88.60 C 32.95 94.43 28.50 100.02 25.28 106.04 C 27.54 108.87 30.40 111.19 32.87 113.85 C 39.31 109.71 45.45 105.12 51.97 101.12 C 54.88 101.26 57.93 102.81 60.22 104.56 C 61.74 112.05 63.03 119.61 64.79 127.05 C 68.30 126.97 71.80 126.98 75.31 127.04 C 77.08 119.68 78.31 112.20 79.86 104.79 C 81.88 102.53 85.28 101.96 88.06 100.94 C 94.88 104.78 101.13 109.66 107.74 113.89 C 110.02 111.16 112.70 108.78 114.89 105.98 C 111.18 99.14 106.39 92.89 102.35 86.22 C 104.22 83.61 104.11 78.57 108.10 78.33 C 114.88 77.04 121.64 75.71 128.40 74.32 C 128.38 70.58 128.40 66.84 128.37 63.10 C 120.90 61.42 113.36 59.98 105.95 58.07 C 104.28 55.94 103.67 53.14 102.35 50.79 C 106.50 44.15 111.01 37.73 115.07 31.03 C 112.60 28.42 110.13 25.81 107.75 23.11 C 101.09 27.31 94.87 32.32 87.98 36.05 C 85.24 35.00 81.81 34.47 79.86 32.18 C 78.33 24.79 77.04 17.35 75.35 9.99 C 71.83 10.00 68.31 10.02 64.79 9.96 C 62.92 17.54 61.88 25.33 59.96 32.89 Z" />
<path fill="#8c8c8c" stroke="#8c8c8c" stroke-width="0.09375" opacity="1.00" d=" M 63.46 49.65 C 67.85 48.35 72.66 48.38 77.00 49.90 C 84.28 52.67 89.93 60.02 89.73 67.97 C 90.35 78.58 80.58 88.53 69.94 88.04 C 62.73 88.61 55.34 84.44 52.28 77.86 C 50.16 73.91 49.86 69.29 50.35 64.92 C 51.32 57.86 56.66 51.74 63.46 49.65 M 68.09 59.22 C 61.74 60.24 58.08 68.07 61.70 73.49 C 65.13 80.10 76.35 79.16 78.53 71.97 C 81.44 65.47 75.12 57.45 68.09 59.22 Z" />
</svg>
